<svg width="24" height="24" viewBox="0 0 24 24" fill="none" xmlns="http://www.w3.org/2000/svg">
<path d="M8.07845 12.768C7.9731 12.6475 7.89289 12.5072 7.84255 12.3554C7.79221 12.2035 7.77275 12.0431 7.78533 11.8835C7.7979 11.724 7.84225 11.5686 7.91576 11.4265C7.98928 11.2844 8.09047 11.1584 8.21339 11.056C8.33632 10.9535 8.47849 10.8767 8.63154 10.83C8.78459 10.7834 8.94543 10.7678 9.10459 10.7842C9.26376 10.8005 9.41804 10.8486 9.55836 10.9255C9.69868 11.0024 9.8222 11.1066 9.92165 11.232L15.9217 18.432C16.027 18.5524 16.1072 18.6927 16.1576 18.8446C16.2079 18.9964 16.2274 19.1569 16.2148 19.3164C16.2022 19.4759 16.1579 19.6313 16.0843 19.7734C16.0108 19.9155 15.9096 20.0415 15.7867 20.1439C15.6638 20.2464 15.5216 20.3232 15.3686 20.3699C15.2155 20.4166 15.0547 20.4322 14.8955 20.4158C14.7363 20.3994 14.5821 20.3513 14.4417 20.2744C14.3014 20.1975 14.1779 20.0933 14.0785 19.968L8.07845 12.768Z" fill="black"/>
<path d="M9.92165 12.768C9.8222 12.8934 9.69868 12.9975 9.55836 13.0744C9.41804 13.1514 9.26376 13.1994 9.10459 13.2158C8.94543 13.2322 8.78459 13.2166 8.63154 13.1699C8.47849 13.1233 8.33632 13.0464 8.21339 12.944C8.09047 12.8416 7.98928 12.7156 7.91576 12.5735C7.84225 12.4313 7.7979 12.2759 7.78533 12.1164C7.77275 11.9569 7.79221 11.7965 7.84255 11.6446C7.89289 11.4927 7.9731 11.3524 8.07845 11.232L14.0785 4.03201C14.1779 3.90666 14.3014 3.80247 14.4417 3.72557C14.5821 3.64866 14.7363 3.6006 14.8955 3.5842C15.0547 3.5678 15.2155 3.5834 15.3686 3.63008C15.5216 3.67676 15.6638 3.75358 15.7867 3.85602C15.9096 3.95845 16.0108 4.08444 16.0843 4.22656C16.1579 4.36868 16.2022 4.52407 16.2148 4.68359C16.2274 4.8431 16.2079 5.00352 16.1576 5.15541C16.1072 5.30729 16.027 5.44758 15.9217 5.56801L9.92165 12.768Z" fill="black"/>
</svg>
