<svg width="24" height="24" viewBox="0 0 24 24" fill="none" xmlns="http://www.w3.org/2000/svg">
<path d="M4 5.71429C4 5.25963 4.18061 4.82359 4.5021 4.5021C4.82359 4.18061 5.25963 4 5.71429 4H9.14286C9.59751 4 10.0335 4.18061 10.355 4.5021C10.6765 4.82359 10.8571 5.25963 10.8571 5.71429V9.14286C10.8571 9.59751 10.6765 10.0335 10.355 10.355C10.0335 10.6765 9.59751 10.8571 9.14286 10.8571H5.71429C5.25963 10.8571 4.82359 10.6765 4.5021 10.355C4.18061 10.0335 4 9.59751 4 9.14286V5.71429ZM5.71429 5.14286C5.56273 5.14286 5.41739 5.20306 5.31022 5.31022C5.20306 5.41739 5.14286 5.56273 5.14286 5.71429V9.14286C5.14286 9.29441 5.20306 9.43975 5.31022 9.54692C5.41739 9.65408 5.56273 9.71429 5.71429 9.71429H9.14286C9.29441 9.71429 9.43975 9.65408 9.54692 9.54692C9.65408 9.43975 9.71429 9.29441 9.71429 9.14286V5.71429C9.71429 5.56273 9.65408 5.41739 9.54692 5.31022C9.43975 5.20306 9.29441 5.14286 9.14286 5.14286H5.71429ZM13.1429 5.71429C13.1429 5.25963 13.3235 4.82359 13.645 4.5021C13.9665 4.18061 14.4025 4 14.8571 4H18.2857C18.7404 4 19.1764 4.18061 19.4979 4.5021C19.8194 4.82359 20 5.25963 20 5.71429V9.14286C20 9.59751 19.8194 10.0335 19.4979 10.355C19.1764 10.6765 18.7404 10.8571 18.2857 10.8571H14.8571C14.4025 10.8571 13.9665 10.6765 13.645 10.355C13.3235 10.0335 13.1429 9.59751 13.1429 9.14286V5.71429ZM14.8571 5.14286C14.7056 5.14286 14.5602 5.20306 14.4531 5.31022C14.3459 5.41739 14.2857 5.56273 14.2857 5.71429V9.14286C14.2857 9.29441 14.3459 9.43975 14.4531 9.54692C14.5602 9.65408 14.7056 9.71429 14.8571 9.71429H18.2857C18.4373 9.71429 18.5826 9.65408 18.6898 9.54692C18.7969 9.43975 18.8571 9.29441 18.8571 9.14286V5.71429C18.8571 5.56273 18.7969 5.41739 18.6898 5.31022C18.5826 5.20306 18.4373 5.14286 18.2857 5.14286H14.8571ZM4 14.8571C4 14.4025 4.18061 13.9665 4.5021 13.645C4.82359 13.3235 5.25963 13.1429 5.71429 13.1429H9.14286C9.59751 13.1429 10.0335 13.3235 10.355 13.645C10.6765 13.9665 10.8571 14.4025 10.8571 14.8571V18.2857C10.8571 18.7404 10.6765 19.1764 10.355 19.4979C10.0335 19.8194 9.59751 20 9.14286 20H5.71429C5.25963 20 4.82359 19.8194 4.5021 19.4979C4.18061 19.1764 4 18.7404 4 18.2857V14.8571ZM5.71429 14.2857C5.56273 14.2857 5.41739 14.3459 5.31022 14.4531C5.20306 14.5602 5.14286 14.7056 5.14286 14.8571V18.2857C5.14286 18.4373 5.20306 18.5826 5.31022 18.6898C5.41739 18.7969 5.56273 18.8571 5.71429 18.8571H9.14286C9.29441 18.8571 9.43975 18.7969 9.54692 18.6898C9.65408 18.5826 9.71429 18.4373 9.71429 18.2857V14.8571C9.71429 14.7056 9.65408 14.5602 9.54692 14.4531C9.43975 14.3459 9.29441 14.2857 9.14286 14.2857H5.71429ZM13.1429 14.8571C13.1429 14.4025 13.3235 13.9665 13.645 13.645C13.9665 13.3235 14.4025 13.1429 14.8571 13.1429H18.2857C18.7404 13.1429 19.1764 13.3235 19.4979 13.645C19.8194 13.9665 20 14.4025 20 14.8571V18.2857C20 18.7404 19.8194 19.1764 19.4979 19.4979C19.1764 19.8194 18.7404 20 18.2857 20H14.8571C14.4025 20 13.9665 19.8194 13.645 19.4979C13.3235 19.1764 13.1429 18.7404 13.1429 18.2857V14.8571ZM14.8571 14.2857C14.7056 14.2857 14.5602 14.3459 14.4531 14.4531C14.3459 14.5602 14.2857 14.7056 14.2857 14.8571V18.2857C14.2857 18.4373 14.3459 18.5826 14.4531 18.6898C14.5602 18.7969 14.7056 18.8571 14.8571 18.8571H18.2857C18.4373 18.8571 18.5826 18.7969 18.6898 18.6898C18.7969 18.5826 18.8571 18.4373 18.8571 18.2857V14.8571C18.8571 14.7056 18.7969 14.5602 18.6898 14.4531C18.5826 14.3459 18.4373 14.2857 18.2857 14.2857H14.8571Z" fill="black"/>
</svg>
