<svg width="70" height="71" viewBox="0 0 70 71" fill="none" xmlns="http://www.w3.org/2000/svg">
<circle cx="35" cy="35" r="34.5" fill="#0B0C10" stroke="white"/>
<path d="M57.125 23.6042V49.2297C57.125 49.5059 56.9011 49.7297 56.625 49.7297H15.6042C15.328 49.7297 15.1042 49.5059 15.1042 49.2297V23.6042C15.1042 23.3281 15.328 23.1042 15.6042 23.1042H26.5104C27.3388 23.1042 28.0104 22.4327 28.0104 21.6042V18.5L44.2187 18.5L44.2187 21.6042C44.2187 22.4327 44.8903 23.1042 45.7187 23.1042H56.625C56.9011 23.1042 57.125 23.3281 57.125 23.6042Z" stroke="white"/>
<path d="M46.3698 36.1292C46.3698 41.3851 41.8098 45.701 36.1146 45.701C30.4194 45.701 25.8594 41.3851 25.8594 36.1292C25.8594 30.8732 30.4194 26.5574 36.1146 26.5574C41.8098 26.5574 46.3698 30.8732 46.3698 36.1292Z" stroke="white"/>
<path d="M30.2395 27.8534L36.1147 45.073" stroke="white"/>
<path d="M25.8821 37.64H33.4112" stroke="white"/>
<path d="M36.6523 26.4373V45.8878" stroke="white"/>
<path d="M39.8022 35.404L44.7195 41.1652" stroke="white"/>
<path d="M36.4111 35.6257L38.9778 35.8356C41.1222 36.011 43.1383 34.7949 43.9834 32.8163L44.7194 31.0934" stroke="white"/>
</svg>
