<svg width="21" height="15" viewBox="0 0 21 15" fill="none" xmlns="http://www.w3.org/2000/svg">
<g id="Group 1325">
<path id="Rectangle 1179" d="M0.5 3.14286C0.5 2.86671 0.723857 2.64286 1 2.64286H5.3C6.12843 2.64286 6.8 1.97128 6.8 1.14286V0.5L14.2 0.5V1.14286C14.2 1.97128 14.8716 2.64286 15.7 2.64286H20C20.2761 2.64286 20.5 2.86671 20.5 3.14286V14C20.5 14.2761 20.2761 14.5 20 14.5H1C0.723858 14.5 0.5 14.2761 0.5 14V3.14286Z" stroke="#202833"/>
<path id="Ellipse 123" d="M15.3552 7.8348C15.3552 9.87894 13.3204 11.6875 10.6052 11.6875C7.89006 11.6875 5.85522 9.87894 5.85522 7.8348C5.85522 5.79065 7.89006 3.98212 10.6052 3.98212C13.3204 3.98212 15.3552 5.79065 15.3552 7.8348Z" stroke="#202833"/>
<path id="Line 79" d="M8.01672 4L10.8846 11.4417" stroke="#202833"/>
<path id="Line 80" d="M5.6106 8.48773H9.28584" stroke="#202833"/>
<path id="Line 81" d="M10.8679 3.6463V12.0521" stroke="#202833"/>
<path id="Line 82" d="M12.4051 7.5214L14.8054 10.0112" stroke="#202833"/>
<path id="Line 83" d="M10.75 7.61721L11.3455 7.66033C12.8002 7.76567 14.1718 6.97214 14.8055 5.65851V5.65851" stroke="#202833"/>
</g>
</svg>
