<svg width="24" height="24" viewBox="0 0 24 24" fill="none" xmlns="http://www.w3.org/2000/svg">
<path d="M15 19C15.2652 19 15.5196 18.8946 15.7071 18.7071C15.8946 18.5196 16 18.2652 16 18C16 17.7348 15.8946 17.4804 15.7071 17.2929C15.5196 17.1053 15.2652 17 15 17C14.7348 17 14.4804 17.1053 14.2929 17.2929C14.1054 17.4804 14 17.7348 14 18C14 18.2652 14.1054 18.5196 14.2929 18.7071C14.4804 18.8946 14.7348 19 15 19ZM17.83 19C17.6234 19.5855 17.2403 20.0926 16.7334 20.4512C16.2265 20.8098 15.6209 21.0024 15 21.0024C14.3791 21.0024 13.7735 20.8098 13.2666 20.4512C12.7597 20.0926 12.3766 19.5855 12.17 19H5C4.73478 19 4.48043 18.8946 4.29289 18.7071C4.10536 18.5196 4 18.2652 4 18C4 17.7348 4.10536 17.4804 4.29289 17.2929C4.48043 17.1053 4.73478 17 5 17H12.17C12.3766 16.4145 12.7597 15.9074 13.2666 15.5488C13.7735 15.1901 14.3791 14.9975 15 14.9975C15.6209 14.9975 16.2265 15.1901 16.7334 15.5488C17.2403 15.9074 17.6234 16.4145 17.83 17H19C19.2652 17 19.5196 17.1053 19.7071 17.2929C19.8946 17.4804 20 17.7348 20 18C20 18.2652 19.8946 18.5196 19.7071 18.7071C19.5196 18.8946 19.2652 19 19 19H17.83ZM9 13C9.26522 13 9.51957 12.8946 9.70711 12.7071C9.89464 12.5196 10 12.2652 10 12C10 11.7348 9.89464 11.4804 9.70711 11.2929C9.51957 11.1053 9.26522 11 9 11C8.73478 11 8.48043 11.1053 8.29289 11.2929C8.10536 11.4804 8 11.7348 8 12C8 12.2652 8.10536 12.5196 8.29289 12.7071C8.48043 12.8946 8.73478 13 9 13ZM11.83 13C11.6234 13.5855 11.2403 14.0926 10.7334 14.4512C10.2265 14.8098 9.62091 15.0024 9 15.0024C8.37909 15.0024 7.77346 14.8098 7.2666 14.4512C6.75974 14.0926 6.3766 13.5855 6.17 13H5C4.73478 13 4.48043 12.8946 4.29289 12.7071C4.10536 12.5196 4 12.2652 4 12C4 11.7348 4.10536 11.4804 4.29289 11.2929C4.48043 11.1053 4.73478 11 5 11H6.17C6.3766 10.4145 6.75974 9.90742 7.2666 9.54878C7.77346 9.19014 8.37909 8.99754 9 8.99754C9.62091 8.99754 10.2265 9.19014 10.7334 9.54878C11.2403 9.90742 11.6234 10.4145 11.83 11L19 11C19.2652 11 19.5196 11.1053 19.7071 11.2929C19.8946 11.4804 20 11.7348 20 12C20 12.2652 19.8946 12.5196 19.7071 12.7071C19.5196 12.8946 19.2652 13 19 13L11.83 13ZM15 6.99999C15.2652 6.99999 15.5196 6.89463 15.7071 6.7071C15.8946 6.51956 16 6.26521 16 5.99999C16 5.73477 15.8946 5.48042 15.7071 5.29288C15.5196 5.10535 15.2652 4.99999 15 4.99999C14.7348 4.99999 14.4804 5.10535 14.2929 5.29288C14.1054 5.48042 14 5.73477 14 5.99999C14 6.26521 14.1054 6.51956 14.2929 6.7071C14.4804 6.89463 14.7348 6.99999 15 6.99999ZM17.83 6.99999C17.6234 7.58552 17.2403 8.09256 16.7334 8.4512C16.2265 8.80985 15.6209 9.00244 15 9.00244C14.3791 9.00244 13.7735 8.80985 13.2666 8.4512C12.7597 8.09256 12.3766 7.58552 12.17 6.99999H5C4.73478 6.99999 4.48043 6.89463 4.29289 6.7071C4.10536 6.51956 4 6.26521 4 5.99999C4 5.73477 4.10536 5.48042 4.29289 5.29288C4.48043 5.10535 4.73478 4.99999 5 4.99999L12.17 4.99999C12.3766 4.41446 12.7597 3.90742 13.2666 3.54878C13.7735 3.19014 14.3791 2.99754 15 2.99754C15.6209 2.99754 16.2265 3.19014 16.7334 3.54878C17.2403 3.90742 17.6234 4.41446 17.83 4.99999H19C19.2652 4.99999 19.5196 5.10535 19.7071 5.29288C19.8946 5.48042 20 5.73477 20 5.99999C20 6.26521 19.8946 6.51956 19.7071 6.7071C19.5196 6.89463 19.2652 6.99999 19 6.99999H17.83Z" fill="black"/>
</svg>
